<svg xmlns="http://www.w3.org/2000/svg" viewBox="0 0 64 64" fill="#c8943e">
  <path d="M32 4C20 4 12 14 12 24c0 6 3 11 7 14l-2 6c-1 3 1 6 4 6h22c3 0 5-3 4-6l-2-6c4-3 7-8 7-14C52 14 44 4 32 4zm0 4c8 0 16 8 16 16s-8 16-16 16-16-8-16-16S24 8 32 8z"/>
  <path d="M8 20c0-4 2-8 4-10l-4-2C4 12 2 16 2 20h6zm48 0h6c0-4-2-8-6-12l-4 2c2 2 4 6 4 10z"/>
  <rect x="10" y="6" width="44" height="6" rx="3"/>
  <circle cx="26" cy="22" r="2.5"/>
  <circle cx="38" cy="22" r="2.5"/>
  <path d="M36 40c0 0 4 4 8 6s8 4 10 8c2 4 0 6-4 6H14c-4 0-6-2-4-6 2-4 6-6 10-8s8-6 8-6" fill="none" stroke="#c8943e" stroke-width="2"/>
</svg>
